<svg xmlns="http://www.w3.org/2000/svg" viewBox="0 0 512 512" role="img" aria-labelledby="title">
  <title id="title">Carvey</title>
  <rect width="512" height="512" rx="96" fill="#101114"/>
  <path fill="#35b8a8" d="M117 280c11-52 26-91 45-117 10-14 27-23 44-23h100c18 0 34 9 44 23 19 26 34 65 45 117h20c16 0 29 13 29 29v43c0 13-10 24-23 24h-20v19c0 15-13 28-28 28h-25c-16 0-28-13-28-28v-19H192v19c0 15-13 28-28 28h-25c-16 0-28-13-28-28v-19H91c-13 0-23-11-23-24v-43c0-16 13-29 29-29h20Zm58-13h162c-9-39-19-66-31-81-3-4-8-7-14-7h-72c-6 0-11 3-14 7-12 15-22 42-31 81Zm-25 66c18 0 32-14 32-32s-14-32-32-32-32 14-32 32 14 32 32 32Zm212 0c18 0 32-14 32-32s-14-32-32-32-32 14-32 32 14 32 32 32Z"/>
  <path fill="#f4f5f7" d="M216 93h80c10 0 18 8 18 18s-8 18-18 18h-80c-10 0-18-8-18-18s8-18 18-18Z" opacity=".95"/>
</svg>
